<svg width="9" height="14" viewBox="0 0 9 14" fill="none" xmlns="http://www.w3.org/2000/svg">
<path d="M7.6636 2.1211C7.80643 1.9655 7.87785 1.8877 7.91521 1.8354C8.3782 1.18737 7.97941 0.279981 7.18893 0.182842C7.12513 0.175003 7.01953 0.175003 6.80832 0.175003C6.76065 0.175003 6.73681 0.175003 6.71393 0.176002C6.45286 0.187398 6.20542 0.295734 6.01997 0.479838C6.00372 0.495976 5.98755 0.513489 5.95522 0.548515L1.31482 5.57558C0.690911 6.25148 0.378955 6.58943 0.378954 6.99997C0.378952 7.4105 0.690907 7.74845 1.31482 8.42436L5.95522 13.4515C5.98755 13.4865 6.00372 13.504 6.01997 13.5202C6.20542 13.7043 6.45286 13.8126 6.71393 13.824C6.73682 13.825 6.76065 13.825 6.80832 13.825C7.01954 13.825 7.12515 13.825 7.18895 13.8172C7.97943 13.72 8.37821 12.8126 7.91523 12.1646C7.87787 12.1123 7.80645 12.0345 7.66362 11.8789L4.48863 8.42006C3.8698 7.7459 3.56039 7.40882 3.56039 6.99997C3.56039 6.59112 3.86981 6.25404 4.48864 5.57988L7.6636 2.1211Z" fill="#1D1B20"/>
</svg>
