<svg width="13" height="13" viewBox="0 0 13 13" fill="none" xmlns="http://www.w3.org/2000/svg">
<path d="M1.26496 8.3848C1.15864 9.0818 1.634 9.5656 2.21603 9.8067C4.44741 10.7311 7.5526 10.7311 9.78395 9.8067C10.366 9.5656 10.8414 9.0818 10.7351 8.3848C10.6697 7.95645 10.3466 7.59975 10.1072 7.25145C9.79365 6.78965 9.7625 6.2859 9.76245 5.75C9.76245 3.67893 8.07795 2 6 2C3.92207 2 2.23757 3.67893 2.23757 5.75C2.23752 6.2859 2.20636 6.78965 1.89281 7.25145C1.65342 7.59975 1.33031 7.95645 1.26496 8.3848Z" fill="#4B4B4B" stroke="#4B4B4B" stroke-width="0.75" stroke-linecap="round" stroke-linejoin="round"/>
<mask id="path-2-inside-1_319_11780" fill="white">
<path d="M4 11C4.22925 11.8626 5.03775 12.5 6 12.5C6.96225 12.5 7.77075 11.8626 8 11"/>
</mask>
<path d="M4 11C4.22925 11.8626 5.03775 12.5 6 12.5C6.96225 12.5 7.77075 11.8626 8 11" fill="#4B4B4B"/>
<path d="M4.72484 10.8074C4.61845 10.407 4.20768 10.1688 3.80737 10.2752C3.40705 10.3815 3.16877 10.7923 3.27516 11.1926L4.72484 10.8074ZM8.72484 11.1926C8.83123 10.7923 8.59295 10.3816 8.19264 10.2752C7.79232 10.1688 7.38155 10.407 7.27516 10.8074L8.72484 11.1926ZM3.27516 11.1926C3.59335 12.3899 4.70404 13.25 6 13.25V11.75C5.37146 11.75 4.86514 11.3353 4.72484 10.8074L3.27516 11.1926ZM6 13.25C7.29597 13.25 8.40664 12.3899 8.72484 11.1926L7.27516 10.8074C7.13486 11.3353 6.62853 11.75 6 11.75V13.25Z" fill="#4B4B4B" mask="url(#path-2-inside-1_319_11780)"/>
<circle cx="10.1328" cy="2" r="2" fill="#00A542"/>
</svg>
