<svg width="12" height="14" viewBox="0 0 12 14" fill="none" xmlns="http://www.w3.org/2000/svg">
<path d="M10.3829 0.80005C10.3829 0.710909 10.3652 0.622648 10.331 0.540346C10.2968 0.458045 10.2466 0.383329 10.1833 0.320498C10.1201 0.257668 10.0451 0.207964 9.96255 0.174247C9.88003 0.14053 9.79166 0.123466 9.70252 0.124037H1.09636C1.00722 0.123466 0.91885 0.14053 0.836332 0.174247C0.753813 0.207964 0.678778 0.257668 0.615545 0.320498C0.552312 0.383329 0.502129 0.458045 0.467885 0.540346C0.433642 0.622648 0.416014 0.710909 0.416016 0.80005V11.5816C0.416014 11.6707 0.433642 11.759 0.467885 11.8413C0.502129 11.9236 0.552312 11.9983 0.615545 12.0611C0.678778 12.124 0.753813 12.1737 0.836332 12.2074C0.91885 12.2411 1.00722 12.2582 1.09636 12.2576H1.3217V1.02105H10.3829V0.80005Z" fill="#343434"/>
<path d="M11.3501 1.7417H2.68322C2.32422 1.7417 2.0332 2.03272 2.0332 2.39171V13.2253C2.0332 13.5843 2.32422 13.8753 2.68322 13.8753H11.3501C11.7091 13.8753 12.0001 13.5843 12.0001 13.2253V2.39171C12.0001 2.03272 11.7091 1.7417 11.3501 1.7417Z" fill="#343434"/>
</svg>
