<svg width="46" height="45" viewBox="0 0 46 45" fill="none" xmlns="http://www.w3.org/2000/svg">
<path d="M46 22.5C46 34.9264 35.7025 45 23 45C10.2975 45 0 34.9264 0 22.5C0 10.0736 10.2975 0 23 0C35.7025 0 46 10.0736 46 22.5Z" fill="#F3F3F3"/>
<path d="M29.2205 13.0324C29.2205 12.8962 29.1936 12.7615 29.1413 12.6358C29.089 12.5101 29.0124 12.396 28.9158 12.3C28.8192 12.2041 28.7046 12.1282 28.5786 12.0767C28.4526 12.0252 28.3177 11.9991 28.1815 12H15.039C14.9028 11.9991 14.7679 12.0252 14.6419 12.0767C14.5159 12.1282 14.4013 12.2041 14.3047 12.3C14.2081 12.396 14.1315 12.5101 14.0792 12.6358C14.0269 12.7615 14 12.8962 14 13.0324V29.497C14 29.6331 14.0269 29.7679 14.0792 29.8936C14.1315 30.0193 14.2081 30.1334 14.3047 30.2293C14.4013 30.3253 14.5159 30.4012 14.6419 30.4526C14.7679 30.5041 14.9028 30.5302 15.039 30.5293H15.3831V13.3699H29.2205V13.0324Z" fill="#1D1B20"/>
<path d="M30.6966 14.4707H17.4614C16.9132 14.4707 16.4688 14.9151 16.4688 15.4633V32.0074C16.4688 32.5556 16.9132 33 17.4614 33H30.6966C31.2449 33 31.6893 32.5556 31.6893 32.0074V15.4633C31.6893 14.9151 31.2449 14.4707 30.6966 14.4707Z" fill="#1D1B20"/>
</svg>
