<svg width="24" height="24" viewBox="0 0 24 24" fill="none" xmlns="http://www.w3.org/2000/svg">
<path d="M3.59961 5.28039H8.81205C9.45402 5.28039 10.0535 4.95956 10.4096 4.42541L11.1897 3.25537C11.5457 2.72122 12.1452 2.40039 12.7872 2.40039H17.0958C17.9221 2.40039 18.6559 2.92922 18.9172 3.71323L19.4396 5.28039M20.8796 5.28039H8.39961" stroke="#4B4B4B" stroke-width="1.44" stroke-linecap="round"/>
<path d="M19.4391 5.28027L18.8442 14.79C18.8235 15.1042 18.8042 15.3972 18.7848 15.6708M5.03906 5.28027L5.61949 14.781C5.76813 17.0985 5.84247 18.2573 6.4586 19.0905C6.76322 19.5026 7.15567 19.8503 7.61095 20.1116C8.53183 20.6403 9.76524 20.6403 12.2321 20.6403H14.6391" stroke="#4B4B4B" stroke-width="1.44" stroke-linecap="round"/>
<path d="M19.9202 18.7198C19.9202 17.1292 18.6308 15.8398 17.0402 15.8398C15.4495 15.8398 14.1602 17.1292 14.1602 18.7198C14.1602 20.3105 15.4495 21.5998 17.0402 21.5998C18.6308 21.5998 19.9202 20.3105 19.9202 18.7198Z" stroke="#4B4B4B" stroke-width="1.44"/>
</svg>
