<svg width="13" height="9" viewBox="0 0 13 9" fill="none" xmlns="http://www.w3.org/2000/svg">
<path d="M1.85342 1.20133C1.70523 1.0653 1.63114 0.99729 1.58133 0.961705C0.964163 0.520759 0.0999788 0.900558 0.00746586 1.6534C0 1.71416 0 1.81473 0 2.01589C0 2.06129 0 2.08399 0.000951347 2.10578C0.0118046 2.35442 0.114982 2.59007 0.290319 2.76669C0.305688 2.78218 0.322367 2.79757 0.355725 2.82836L5.14341 7.24779C5.78712 7.84199 6.10898 8.13909 6.49997 8.13909C6.89095 8.13909 7.21281 7.84199 7.85653 7.24779L12.6443 2.82837C12.6776 2.79757 12.6943 2.78218 12.7097 2.76669C12.885 2.59007 12.9882 2.35442 12.999 2.10578C13 2.08398 13 2.06128 13 2.01588C13 1.81472 13 1.71414 12.9925 1.65338C12.9 0.900544 12.0358 0.520747 11.4187 0.961682C11.3689 0.997268 11.2948 1.06528 11.1466 1.20132L7.85243 4.22511C7.21038 4.81447 6.88935 5.10916 6.49997 5.10915C6.11059 5.10915 5.78956 4.81447 5.1475 4.2251L1.85342 1.20133Z" fill="#4B4B4B"/>
</svg>
