<svg width="16" height="16" viewBox="0 0 16 16" fill="none" xmlns="http://www.w3.org/2000/svg">
<g clip-path="url(#clip0_1370_12455)">
<path d="M9.38312 2.58997C9.87992 2.05173 10.1283 1.78261 10.3923 1.62563C11.0291 1.24685 11.8134 1.23507 12.4609 1.59455C12.7293 1.74354 12.9853 2.00509 13.4973 2.52818C14.0094 3.05127 14.2655 3.31282 14.4113 3.58696C14.7632 4.24842 14.7517 5.04953 14.3809 5.70014C14.2272 5.96978 13.9637 6.22353 13.4369 6.73101L7.16772 12.7692C6.16924 13.7309 5.66999 14.2118 5.04603 14.4555C4.42207 14.6992 3.73612 14.6813 2.36423 14.6454L2.17757 14.6405C1.75993 14.6296 1.5511 14.6241 1.42971 14.4863C1.30832 14.3486 1.32489 14.1359 1.35804 13.7105L1.37604 13.4795C1.46933 12.282 1.51597 11.6833 1.74979 11.1451C1.98361 10.6069 2.38695 10.17 3.19361 9.29601L9.38312 2.58997Z" stroke="white" stroke-linejoin="round"/>
<path d="M8.66602 2.66699L13.3327 7.33366" stroke="white" stroke-linejoin="round"/>
<path d="M9.33398 14.667H14.6673" stroke="white" stroke-linecap="round" stroke-linejoin="round"/>
</g>
<defs>
<clipPath id="clip0_1370_12455">
<rect width="16" height="16" fill="white"/>
</clipPath>
</defs>
</svg>
