<svg width="12" height="13" viewBox="0 0 12 13" fill="none" xmlns="http://www.w3.org/2000/svg">
<path d="M4.42873 7.25305C3.18451 6.3228 2.29782 5.29957 1.81367 4.72433C1.6638 4.54626 1.61469 4.41595 1.58517 4.1864C1.48406 3.4004 1.43351 3.0074 1.66398 2.7537C1.89445 2.5 2.30202 2.5 3.11717 2.5H8.88285C9.698 2.5 10.1056 2.5 10.336 2.7537C10.5665 3.0074 10.516 3.4004 10.4149 4.1864C10.3853 4.41595 10.3362 4.54627 10.1863 4.72433C9.7015 5.30031 8.81305 6.32535 7.5663 7.25675C7.4535 7.34105 7.37915 7.47835 7.36535 7.6307C7.24185 8.996 7.12795 9.7438 7.05705 10.1221C6.94265 10.7329 6.0766 11.1003 5.613 11.4282C5.33705 11.6233 5.00215 11.391 4.96639 11.0889C4.89822 10.5131 4.76981 9.3432 4.62964 7.6307C4.61705 7.47695 4.54243 7.33805 4.42873 7.25305Z" fill="#4B4B4B" stroke="#4B4B4B" stroke-width="0.75" stroke-linecap="round" stroke-linejoin="round"/>
<circle cx="10" cy="2" r="2" fill="#00A542"/>
</svg>
