<svg width="36" height="36" viewBox="0 0 36 36" fill="none" xmlns="http://www.w3.org/2000/svg">
<path d="M25.3682 20.3307C25.3682 19.8215 25.3682 19.5671 25.4447 19.3403C25.6674 18.681 26.2545 18.4254 26.8425 18.1575C27.5037 17.8563 27.8342 17.7058 28.1617 17.6793C28.5336 17.6492 28.906 17.7293 29.2239 17.9077C29.6452 18.1441 29.939 18.5934 30.2399 18.9588C31.6292 20.6463 32.3239 21.4902 32.5781 22.4207C32.7832 23.1715 32.7832 23.9568 32.5781 24.7076C32.2074 26.0647 31.0361 27.2024 30.1691 28.2555C29.7256 28.7941 29.5038 29.0634 29.2239 29.2206C28.906 29.3989 28.5336 29.479 28.1617 29.449C27.8342 29.4225 27.5037 29.272 26.8425 28.9708C26.2545 28.7029 25.6674 28.4472 25.4447 27.788C25.3682 27.5612 25.3682 27.3067 25.3682 26.7976V20.3307Z" stroke="#1D1B20" stroke-width="2.20914"/>
<path d="M14.3223 30.928C16.3557 32.8916 19.6526 32.8916 21.6861 30.928" stroke="#1D1B20" stroke-width="2.20914" stroke-linecap="round" stroke-linejoin="round"/>
<path d="M10.6402 20.3306C10.6402 19.6897 10.6222 19.1137 10.104 18.663C9.91547 18.4991 9.66557 18.3853 9.16581 18.1576C8.50468 17.8566 8.17412 17.706 7.84658 17.6795C6.86388 17.6 6.33517 18.2707 5.76847 18.9589C4.3791 20.6464 3.68441 21.4902 3.43021 22.4206C3.22509 23.1715 3.22509 23.9567 3.43021 24.7075C3.80096 26.0647 4.97228 27.2021 5.83928 28.2551C6.38579 28.9189 6.90786 29.5247 7.84658 29.4487C8.17412 29.4221 8.50468 29.2716 9.16581 28.9705C9.66557 28.7429 9.91547 28.6291 10.104 28.4652C10.6222 28.0145 10.6402 27.4385 10.6402 26.7974V20.3306Z" stroke="#1D1B20" stroke-width="2.20914"/>
<path d="M3.27637 23.5642V17.6732C3.27637 9.53933 9.87014 2.94556 18.004 2.94556C26.1377 2.94556 32.7316 9.53933 32.7316 17.6732L32.7317 23.5642" stroke="#1D1B20" stroke-width="2.20914" stroke-linecap="round" stroke-linejoin="round"/>
</svg>
