<svg width="16" height="16" viewBox="0 0 16 16" fill="none" xmlns="http://www.w3.org/2000/svg">
<path d="M9.07847 14.2443C8.7894 14.515 8.40293 14.6663 8.00073 14.6663C7.59853 14.6663 7.21213 14.515 6.923 14.2443C4.27535 11.7503 0.727174 8.96427 2.45751 4.91945C3.39309 2.73245 5.63889 1.33301 8.00073 1.33301C10.3626 1.33301 12.6084 2.73245 13.544 4.91945C15.2721 8.95921 11.7327 11.7589 9.07847 14.2443Z" stroke="#1D1B20"/>
<path d="M10.3337 7.33333C10.3337 8.622 9.28899 9.66667 8.00033 9.66667C6.71166 9.66667 5.66699 8.622 5.66699 7.33333C5.66699 6.04467 6.71166 5 8.00033 5C9.28899 5 10.3337 6.04467 10.3337 7.33333Z" stroke="#1D1B20"/>
</svg>
