<svg width="12" height="12" viewBox="0 0 12 12" fill="none" xmlns="http://www.w3.org/2000/svg">
<path d="M1.33333 1.66699C0.979711 1.66699 0.640573 1.80747 0.390524 2.05752C0.140476 2.30756 0 2.6467 0 3.00033L0 9.00033C0 9.35395 0.140476 9.69309 0.390524 9.94313C0.640573 10.1932 0.979711 10.3337 1.33333 10.3337H4V1.66699H1.33333Z" fill="#009A49"/>
<path d="M4 1.66699H8V10.3337H4V1.66699Z" fill="#EEEEEE"/>
<path d="M10.6667 1.66699H8V10.3337H10.6667C11.0203 10.3337 11.3594 10.1932 11.6095 9.94313C11.8595 9.69309 12 9.35395 12 9.00033V3.00033C12 2.6467 11.8595 2.30756 11.6095 2.05752C11.3594 1.80747 11.0203 1.66699 10.6667 1.66699Z" fill="#009A49"/>
</svg>
