<svg width="70" height="24" viewBox="0 0 70 24" fill="none" xmlns="http://www.w3.org/2000/svg">
<path d="M1.33333 7.66699C0.979711 7.66699 0.640573 7.80747 0.390524 8.05752C0.140476 8.30756 0 8.6467 0 9.00033L0 15.0003C0 15.3539 0.140476 15.6931 0.390524 15.9431C0.640573 16.1932 0.979711 16.3337 1.33333 16.3337H4V7.66699H1.33333Z" fill="#009A49"/>
<path d="M4 7.66699H8V16.3337H4V7.66699Z" fill="#EEEEEE"/>
<path d="M10.6667 7.66699H8V16.3337H10.6667C11.0203 16.3337 11.3594 16.1932 11.6095 15.9431C11.8595 15.6931 12 15.3539 12 15.0003V9.00033C12 8.6467 11.8595 8.30756 11.6095 8.05752C11.3594 7.80747 11.0203 7.66699 10.6667 7.66699Z" fill="#009A49"/>
<path d="M24.16 4.8H25.648V16H24.448L18.688 7.632V16H17.2V4.8H18.4L24.16 13.152V4.8ZM28.7537 6.544C28.4871 6.544 28.2631 6.45333 28.0817 6.272C27.9004 6.09067 27.8097 5.872 27.8097 5.616C27.8097 5.36 27.9004 5.14133 28.0817 4.96C28.2631 4.768 28.4871 4.672 28.7537 4.672C29.0097 4.672 29.2284 4.768 29.4097 4.96C29.5911 5.14133 29.6817 5.36 29.6817 5.616C29.6817 5.872 29.5911 6.09067 29.4097 6.272C29.2284 6.45333 29.0097 6.544 28.7537 6.544ZM28.0497 16V8H29.4417V16H28.0497ZM38.3554 8H39.7314V15.664C39.7314 16.848 39.3314 17.7653 38.5314 18.416C37.7314 19.0773 36.7714 19.408 35.6514 19.408C34.7554 19.408 33.982 19.2373 33.3314 18.896C32.6807 18.5653 32.19 18.0853 31.8594 17.456L33.0754 16.768C33.5127 17.664 34.382 18.112 35.6834 18.112C36.5154 18.112 37.166 17.8933 37.6354 17.456C38.1154 17.0187 38.3554 16.4213 38.3554 15.664V14.528C37.6514 15.5947 36.6487 16.128 35.3474 16.128C34.206 16.128 33.2407 15.7227 32.4514 14.912C31.662 14.1013 31.2674 13.1147 31.2674 11.952C31.2674 10.7893 31.662 9.808 32.4514 9.008C33.2407 8.19733 34.206 7.792 35.3474 7.792C36.6594 7.792 37.662 8.32 38.3554 9.376V8ZM33.4754 13.984C34.0194 14.528 34.6967 14.8 35.5074 14.8C36.318 14.8 36.9954 14.528 37.5394 13.984C38.0834 13.44 38.3554 12.7627 38.3554 11.952C38.3554 11.152 38.0834 10.48 37.5394 9.936C36.9954 9.392 36.318 9.12 35.5074 9.12C34.6967 9.12 34.0194 9.392 33.4754 9.936C32.9314 10.48 32.6594 11.152 32.6594 11.952C32.6594 12.7627 32.9314 13.44 33.4754 13.984ZM42.9664 12.64C43.105 13.3547 43.4304 13.9093 43.9424 14.304C44.465 14.6987 45.105 14.896 45.8624 14.896C46.9184 14.896 47.6864 14.5067 48.1664 13.728L49.3504 14.4C48.5717 15.6053 47.3984 16.208 45.8304 16.208C44.561 16.208 43.5264 15.8133 42.7264 15.024C41.937 14.224 41.5424 13.216 41.5424 12C41.5424 10.7947 41.9317 9.792 42.7104 8.992C43.489 8.192 44.497 7.792 45.7344 7.792C46.9077 7.792 47.8624 8.208 48.5984 9.04C49.345 9.86133 49.7184 10.8533 49.7184 12.016C49.7184 12.2187 49.7024 12.4267 49.6704 12.64H42.9664ZM45.7344 9.104C44.9877 9.104 44.369 9.31733 43.8784 9.744C43.3877 10.16 43.0837 10.72 42.9664 11.424H48.3104C48.193 10.6667 47.8944 10.0907 47.4144 9.696C46.9344 9.30133 46.3744 9.104 45.7344 9.104ZM52.8605 9.344C53.3192 8.352 54.1512 7.856 55.3565 7.856V9.312C54.6738 9.28 54.0872 9.46133 53.5965 9.856C53.1058 10.2507 52.8605 10.8853 52.8605 11.76V16H51.4685V8H52.8605V9.344ZM57.5725 6.544C57.3058 6.544 57.0818 6.45333 56.9005 6.272C56.7192 6.09067 56.6285 5.872 56.6285 5.616C56.6285 5.36 56.7192 5.14133 56.9005 4.96C57.0818 4.768 57.3058 4.672 57.5725 4.672C57.8285 4.672 58.0472 4.768 58.2285 4.96C58.4098 5.14133 58.5005 5.36 58.5005 5.616C58.5005 5.872 58.4098 6.09067 58.2285 6.272C58.0472 6.45333 57.8285 6.544 57.5725 6.544ZM56.8685 16V8H58.2605V16H56.8685ZM67.1581 8H68.5501V16H67.1581V14.624C66.4648 15.68 65.4568 16.208 64.1341 16.208C63.0141 16.208 62.0595 15.8027 61.2701 14.992C60.4808 14.1707 60.0861 13.1733 60.0861 12C60.0861 10.8267 60.4808 9.83467 61.2701 9.024C62.0595 8.20267 63.0141 7.792 64.1341 7.792C65.4568 7.792 66.4648 8.32 67.1581 9.376V8ZM64.3101 14.864C65.1208 14.864 65.7981 14.592 66.3421 14.048C66.8861 13.4933 67.1581 12.8107 67.1581 12C67.1581 11.1893 66.8861 10.512 66.3421 9.968C65.7981 9.41333 65.1208 9.136 64.3101 9.136C63.5101 9.136 62.8381 9.41333 62.2941 9.968C61.7501 10.512 61.4781 11.1893 61.4781 12C61.4781 12.8107 61.7501 13.4933 62.2941 14.048C62.8381 14.592 63.5101 14.864 64.3101 14.864Z" fill="#1D1B20"/>
</svg>
