<svg width="21" height="21" viewBox="0 0 21 21" fill="none" xmlns="http://www.w3.org/2000/svg">
<path d="M17 8.5625C16.3539 5.32432 13.3541 2.875 9.75193 2.875C5.67821 2.875 2.375 6.00736 2.375 9.87062C2.375 11.7269 3.13728 13.4134 4.3807 14.665C4.65446 14.9406 4.83724 15.3171 4.76347 15.7046C4.64173 16.3382 4.36584 16.9292 3.96185 17.4218C5.02475 17.6177 6.12994 17.4413 7.07776 16.9416C7.41282 16.765 7.58034 16.6767 7.69856 16.6587C7.78131 16.6462 7.8891 16.6579 8.0625 16.6877" stroke="#DDDDDD" stroke-width="1.21875" stroke-linecap="round" stroke-linejoin="round"/>
<path d="M9.6875 14.4626C9.6875 16.8235 11.6885 18.7378 14.1562 18.7378C14.4464 18.7381 14.7357 18.7113 15.0207 18.6578C15.2259 18.6192 15.3285 18.6 15.4001 18.6109C15.4717 18.6218 15.5732 18.6758 15.7762 18.7837C16.3503 19.0891 17.0198 19.1969 17.6637 19.0771C17.419 18.7762 17.2519 18.415 17.1781 18.0278C17.1334 17.791 17.2442 17.5609 17.41 17.3925C18.1633 16.6276 18.625 15.597 18.625 14.4626C18.625 12.1017 16.624 10.1875 14.1562 10.1875C11.6885 10.1875 9.6875 12.1017 9.6875 14.4626Z" stroke="#DDDDDD" stroke-width="1.21875" stroke-linejoin="round"/>
<circle cx="16.5938" cy="4.29688" r="4.26562" fill="#E60000"/>
<path d="M14.9476 7.03125V6.33714L16.5582 4.67935C16.9176 4.30197 17.0973 3.98748 17.0973 3.73589C17.0973 3.5517 17.0389 3.40344 16.9221 3.29112C16.8098 3.17881 16.6638 3.12265 16.4841 3.12265C16.1291 3.12265 15.8663 3.30685 15.6956 3.67524L14.9139 3.21699C15.0621 2.89352 15.2755 2.64643 15.5541 2.47571C15.8326 2.30499 16.1381 2.21963 16.4706 2.21963C16.8974 2.21963 17.2635 2.35441 17.569 2.62396C17.8745 2.88903 18.0273 3.24844 18.0273 3.7022C18.0273 4.1919 17.769 4.69507 17.2523 5.21173L16.3291 6.13497H18.1014V7.03125H14.9476Z" fill="white"/>
</svg>
