<svg width="16" height="16" viewBox="0 0 16 16" fill="none" xmlns="http://www.w3.org/2000/svg">
<path d="M14.6663 7.33333C14.6663 4.97501 14.6663 3.79585 13.9645 3.0086C13.8522 2.88269 13.7285 2.76623 13.5947 2.66058C12.7583 2 11.5054 2 8.99967 2H6.99967C4.49395 2 3.24109 2 2.40465 2.66058C2.27086 2.76623 2.14713 2.88269 2.03487 3.0086C1.33301 3.79585 1.33301 4.97501 1.33301 7.33333C1.33301 9.69167 1.33301 10.8708 2.03487 11.6581C2.14713 11.784 2.27086 11.9004 2.40465 12.0061C3.24109 12.6667 4.49395 12.6667 6.99967 12.6667H7.99967" stroke="#4B4B4B" stroke-linecap="round" stroke-linejoin="round"/>
<path d="M1.33301 5.33301H14.6663" stroke="#4B4B4B" stroke-linejoin="round"/>
<path d="M10.75 13V9M12 9V8M12 14V13M10.75 11H13.25M13.25 11C13.6642 11 14 11.3358 14 11.75V12.25C14 12.6642 13.6642 13 13.25 13H10M13.25 11C13.6642 11 14 10.6642 14 10.25V9.75C14 9.3358 13.6642 9 13.25 9H10" stroke="#4B4B4B" stroke-linecap="round" stroke-linejoin="round"/>
</svg>
