<svg width="16" height="16" viewBox="0 0 16 16" fill="none" xmlns="http://www.w3.org/2000/svg">
<path d="M3.16025 9.579L4.46234 8.6544C4.82963 8.3936 5.20203 8.2188 5.62689 8.10567C6.11467 7.97574 6.33333 7.7096 6.33333 7.14067C6.33333 5.69752 9.66667 5.54396 9.66667 7.14067C9.66667 7.7096 9.88533 7.97574 10.3731 8.10567C10.8013 8.21967 11.1733 8.3956 11.5377 8.6544L12.8397 9.579C13.4289 9.9974 13.7031 10.1997 13.8561 10.5213C14 10.8239 14 11.1787 14 11.8883C14 13.1641 14 13.802 13.6428 14.2109C13.2101 14.7062 12.0853 14.6637 11.3945 14.6637H4.60555C3.91465 14.6637 2.81273 14.7324 2.3572 14.2109C2 13.802 2 13.1641 2 11.8883C2 11.1787 2 10.8239 2.14389 10.5213C2.29684 10.1997 2.57108 9.9974 3.16025 9.579Z" stroke="#1D1B20"/>
<path d="M9.33366 11.3333C9.33366 12.0697 8.73673 12.6667 8.00033 12.6667C7.26393 12.6667 6.66699 12.0697 6.66699 11.3333C6.66699 10.5969 7.26393 10 8.00033 10C8.73673 10 9.33366 10.5969 9.33366 11.3333Z" stroke="#1D1B20"/>
<path d="M4.63977 2.46515C3.76081 2.7161 3.1289 3.02741 2.55064 3.40303C1.63513 3.99773 1.24263 5.06936 1.35039 6.10342C1.39594 6.54045 1.74677 6.7494 2.1536 6.63637C2.46268 6.55047 2.77226 6.46686 3.07942 6.37576C3.97772 6.10931 4.189 5.78541 4.31384 4.8659L4.63977 2.46515ZM4.63977 2.46515C6.81208 1.84495 9.18727 1.84495 11.3596 2.46515M11.3596 2.46515C12.2385 2.7161 12.8705 3.02741 13.4487 3.40303C14.3642 3.99773 14.7567 5.06936 14.6489 6.10342C14.6034 6.54045 14.2526 6.7494 13.8457 6.63637C13.5367 6.55047 13.2271 6.46686 12.9199 6.37576C12.0216 6.10931 11.8103 5.78541 11.6855 4.8659L11.3596 2.46515Z" stroke="#1D1B20" stroke-linejoin="round"/>
</svg>
