<svg width="16" height="16" viewBox="0 0 16 16" fill="none" xmlns="http://www.w3.org/2000/svg">
<path d="M8.66667 2.66699H2" stroke="#4B4B4B" stroke-linecap="round" stroke-linejoin="round"/>
<path d="M7.33333 12.667H2" stroke="#4B4B4B" stroke-linecap="round" stroke-linejoin="round"/>
<path d="M13.9997 12.667H11.333" stroke="#4B4B4B" stroke-linecap="round" stroke-linejoin="round"/>
<path d="M13.9997 7.66699H7.33301" stroke="#4B4B4B" stroke-linecap="round" stroke-linejoin="round"/>
<path d="M14.0003 2.66699H12.667" stroke="#4B4B4B" stroke-linecap="round" stroke-linejoin="round"/>
<path d="M3.33333 7.66699H2" stroke="#4B4B4B" stroke-linecap="round" stroke-linejoin="round"/>
<path d="M9.66699 1.33301C9.97759 1.33301 10.1329 1.33301 10.2555 1.38375C10.4188 1.45141 10.5486 1.5812 10.6163 1.74455C10.667 1.86707 10.667 2.02238 10.667 2.33301V2.99967C10.667 3.3103 10.667 3.46561 10.6163 3.58813C10.5486 3.75148 10.4188 3.88127 10.2555 3.94893C10.1329 3.99967 9.97759 3.99967 9.66699 3.99967C9.35639 3.99967 9.20106 3.99967 9.07853 3.94893C8.91519 3.88127 8.78539 3.75148 8.71773 3.58813C8.66699 3.46561 8.66699 3.3103 8.66699 2.99967V2.33301C8.66699 2.02238 8.66699 1.86707 8.71773 1.74455C8.78539 1.5812 8.91519 1.45141 9.07853 1.38375C9.20106 1.33301 9.35639 1.33301 9.66699 1.33301Z" stroke="#4B4B4B" stroke-linecap="round" stroke-linejoin="round"/>
<path d="M8.33301 11.333C8.64361 11.333 8.79894 11.333 8.92147 11.3837C9.08481 11.4514 9.21461 11.5812 9.28227 11.7445C9.33301 11.8671 9.33301 12.0224 9.33301 12.333V12.9997C9.33301 13.3103 9.33301 13.4656 9.28227 13.5881C9.21461 13.7515 9.08481 13.8813 8.92147 13.9489C8.79894 13.9997 8.64361 13.9997 8.33301 13.9997C8.02241 13.9997 7.86707 13.9997 7.74454 13.9489C7.58121 13.8813 7.45141 13.7515 7.38374 13.5881C7.33301 13.4656 7.33301 13.3103 7.33301 12.9997V12.333C7.33301 12.0224 7.33301 11.8671 7.38374 11.7445C7.45141 11.5812 7.58121 11.4514 7.74454 11.3837C7.86707 11.333 8.02241 11.333 8.33301 11.333Z" stroke="#4B4B4B" stroke-linecap="round" stroke-linejoin="round"/>
<path d="M6.33301 6.33301C6.64363 6.33301 6.79894 6.33301 6.92147 6.38375C7.08481 6.45141 7.21461 6.5812 7.28227 6.74454C7.33301 6.86707 7.33301 7.02241 7.33301 7.33301V7.99967C7.33301 8.31027 7.33301 8.46561 7.28227 8.58814C7.21461 8.75147 7.08481 8.88127 6.92147 8.94894C6.79894 8.99967 6.64363 8.99967 6.33301 8.99967C6.02238 8.99967 5.86707 8.99967 5.74455 8.94894C5.5812 8.88127 5.45141 8.75147 5.38375 8.58814C5.33301 8.46561 5.33301 8.31027 5.33301 7.99967V7.33301C5.33301 7.02241 5.33301 6.86707 5.38375 6.74454C5.45141 6.5812 5.5812 6.45141 5.74455 6.38375C5.86707 6.33301 6.02238 6.33301 6.33301 6.33301Z" stroke="#4B4B4B" stroke-linecap="round" stroke-linejoin="round"/>
</svg>
