<svg width="6" height="10" viewBox="0 0 6 10" fill="none" xmlns="http://www.w3.org/2000/svg">
<path d="M1.13422 1.90261C1.04354 1.80382 0.998193 1.75442 0.97447 1.72122C0.680506 1.30977 0.933705 0.733645 1.4356 0.671969C1.47611 0.666992 1.54316 0.666992 1.67726 0.666992C1.70752 0.666992 1.72266 0.666992 1.73719 0.667626C1.90294 0.674862 2.06005 0.743647 2.1778 0.860538C2.18812 0.870784 2.19838 0.881904 2.21891 0.904142L5.16519 4.09593C5.56133 4.52508 5.75939 4.73965 5.75939 5.0003C5.7594 5.26096 5.56133 5.47553 5.1652 5.90468L2.21891 9.09651C2.19838 9.11874 2.18812 9.12986 2.17779 9.14011C2.06005 9.257 1.90294 9.32579 1.73719 9.33302C1.72266 9.33366 1.70752 9.33366 1.67726 9.33366C1.54315 9.33366 1.47609 9.33366 1.43559 9.32868C0.933696 9.267 0.680498 8.69089 0.974454 8.27944C0.998178 8.24624 1.04352 8.19684 1.13421 8.09804L3.15007 5.90195C3.54298 5.47391 3.73944 5.25989 3.73944 5.0003C3.73944 4.74072 3.54298 4.5267 3.15007 4.09866L1.13422 1.90261Z" fill="#4B4B4B"/>
</svg>
