<svg width="20" height="20" viewBox="0 0 20 20" fill="none" xmlns="http://www.w3.org/2000/svg">
<g clip-path="url(#clip0_341_5516)">
<path d="M9.99935 18.3337C14.6017 18.3337 18.3327 14.6027 18.3327 10.0003C18.3327 5.39795 14.6017 1.66699 9.99935 1.66699C5.39698 1.66699 1.66602 5.39795 1.66602 10.0003C1.66602 14.6027 5.39698 18.3337 9.99935 18.3337Z" stroke="#4B4B4B" stroke-width="1.5"/>
<path d="M8.33398 7.49967C8.33398 6.5792 9.08015 5.83301 10.0007 5.83301C10.9212 5.83301 11.6673 6.5792 11.6673 7.49967C11.6673 7.83147 11.5704 8.14062 11.4032 8.40034C10.9052 9.17442 10.0007 9.91251 10.0007 10.833V11.2497" stroke="#4B4B4B" stroke-width="1.5" stroke-linecap="round"/>
<path d="M9.99316 14.167H10.0007" stroke="#4B4B4B" stroke-width="1.5" stroke-linecap="round" stroke-linejoin="round"/>
</g>
<defs>
<clipPath id="clip0_341_5516">
<rect width="20" height="20" fill="white"/>
</clipPath>
</defs>
</svg>
