<svg width="17" height="18" viewBox="0 0 17 18" fill="none" xmlns="http://www.w3.org/2000/svg">
<path d="M8.49934 16.5832C12.6875 16.5832 16.0827 13.188 16.0827 8.99983C16.0827 4.81168 12.6875 1.4165 8.49934 1.4165C4.31119 1.4165 0.916016 4.81168 0.916016 8.99983C0.916016 13.188 4.31119 16.5832 8.49934 16.5832Z" fill="#DDDDDD" stroke="#DDDDDD" stroke-width="1.1375"/>
<path d="M7.88342 10.6283C7.88342 10.2613 7.96267 9.91926 8.12116 9.60227C8.27965 9.28529 8.47151 9.01419 8.69673 8.78896C8.92196 8.56374 9.14718 8.35102 9.37241 8.15082C9.59763 7.94228 9.78949 7.71706 9.94798 7.47515C10.1065 7.2249 10.1857 6.96214 10.1857 6.68686C10.1857 6.26978 10.0397 5.9528 9.74778 5.73591C9.46417 5.51069 9.09296 5.39808 8.63417 5.39808C7.71659 5.39808 7.1285 5.80265 6.86991 6.61179L5.88142 6.06124C6.08996 5.47732 6.44448 5.03521 6.94498 4.73491C7.44548 4.42627 8.01272 4.27195 8.64668 4.27195C9.38909 4.27195 10.0231 4.48049 10.5486 4.89758C11.0824 5.31466 11.3494 5.89441 11.3494 6.63681C11.3494 6.98716 11.2701 7.31666 11.1116 7.6253C10.9532 7.93394 10.7613 8.20087 10.5361 8.4261C10.3108 8.65132 10.0856 8.87238 9.86039 9.08926C9.63517 9.2978 9.44331 9.53554 9.28482 9.80247C9.12633 10.0611 9.04708 10.3363 9.04708 10.6283H7.88342ZM8.459 13.331C8.23377 13.331 8.04191 13.2518 7.88342 13.0933C7.72493 12.9348 7.64568 12.7429 7.64568 12.5177C7.64568 12.2925 7.72493 12.1006 7.88342 11.9421C8.04191 11.7836 8.23377 11.7044 8.459 11.7044C8.69256 11.7044 8.88442 11.7836 9.03457 11.9421C9.19306 12.1006 9.27231 12.2925 9.27231 12.5177C9.27231 12.7429 9.19306 12.9348 9.03457 13.0933C8.88442 13.2518 8.69256 13.331 8.459 13.331Z" fill="black"/>
</svg>
