<svg width="12" height="12" viewBox="0 0 12 12" fill="none" xmlns="http://www.w3.org/2000/svg">
<path d="M6.16666 11.1673C9.02013 11.1673 11.3333 8.85412 11.3333 6.00065C11.3333 3.14718 9.02013 0.833984 6.16666 0.833984C3.31319 0.833984 1 3.14718 1 6.00065C1 8.85412 3.31319 11.1673 6.16666 11.1673Z" fill="#4B4B4B" stroke="#4B4B4B" stroke-width="0.775"/>
<path d="M5.74762 7.25238C5.74762 7.00231 5.80162 6.76929 5.9096 6.55333C6.01758 6.33736 6.1483 6.15265 6.30175 5.9992C6.4552 5.84575 6.60865 5.70083 6.7621 5.56443C6.91555 5.42234 7.04627 5.26889 7.15425 5.10408C7.26223 4.93358 7.31622 4.75455 7.31622 4.567C7.31622 4.28284 7.21677 4.06687 7.01785 3.9191C6.82462 3.76565 6.57171 3.68893 6.25912 3.68893C5.63396 3.68893 5.23328 3.96457 5.0571 4.51585L4.38362 4.14075C4.52571 3.74292 4.76725 3.4417 5.10825 3.2371C5.44925 3.02682 5.83572 2.92168 6.26765 2.92168C6.77347 2.92168 7.2054 3.06376 7.56345 3.34793C7.92718 3.63209 8.10905 4.02709 8.10905 4.5329C8.10905 4.7716 8.05506 4.99609 7.94707 5.20638C7.83909 5.41666 7.70837 5.59853 7.55492 5.75198C7.40147 5.90543 7.24802 6.05603 7.09457 6.2038C6.94112 6.34588 6.81041 6.50786 6.70242 6.68973C6.59444 6.86591 6.54045 7.05346 6.54045 7.25238H5.74762ZM6.13977 9.09377C5.98632 9.09377 5.85561 9.03978 5.74762 8.9318C5.63964 8.82382 5.58565 8.6931 5.58565 8.53965C5.58565 8.3862 5.63964 8.25548 5.74762 8.1475C5.85561 8.03952 5.98632 7.98553 6.13977 7.98553C6.29891 7.98553 6.42962 8.03952 6.53192 8.1475C6.63991 8.25548 6.6939 8.3862 6.6939 8.53965C6.6939 8.6931 6.63991 8.82382 6.53192 8.9318C6.42962 9.03978 6.29891 9.09377 6.13977 9.09377Z" fill="white"/>
</svg>
