<svg width="16" height="16" viewBox="0 0 16 16" fill="none" xmlns="http://www.w3.org/2000/svg">
<path d="M8 15C11.866 15 15 11.866 15 8C15 4.13401 11.866 1 8 1C4.13401 1 1 4.13401 1 8C1 11.866 4.13401 15 8 15Z" fill="#4B4B4B" stroke="#4B4B4B" stroke-width="1.05"/>
<path d="M7.4322 9.50334C7.4322 9.16454 7.50535 8.84884 7.65165 8.55624C7.79795 8.26364 7.97505 8.01339 8.18295 7.80549C8.39085 7.59759 8.59875 7.40124 8.80665 7.21644C9.01455 7.02394 9.19165 6.81604 9.33795 6.59274C9.48425 6.36174 9.5574 6.11919 9.5574 5.86509C9.5574 5.48009 9.42265 5.18749 9.15315 4.98729C8.89135 4.77939 8.5487 4.67544 8.1252 4.67544C7.2782 4.67544 6.73535 5.04889 6.49665 5.79579L5.5842 5.28759C5.7767 4.74859 6.10395 4.34049 6.56595 4.06329C7.02795 3.77839 7.55155 3.63594 8.13675 3.63594C8.82205 3.63594 9.40725 3.82844 9.89235 4.21344C10.3852 4.59844 10.6316 5.13359 10.6316 5.81889C10.6316 6.14229 10.5584 6.44644 10.4121 6.73134C10.2658 7.01624 10.0887 7.26264 9.8808 7.47054C9.6729 7.67844 9.465 7.88249 9.2571 8.08269C9.0492 8.27519 8.8721 8.49464 8.7258 8.74104C8.5795 8.97974 8.50635 9.23384 8.50635 9.50334H7.4322ZM7.9635 11.9981C7.7556 11.9981 7.5785 11.925 7.4322 11.7787C7.2859 11.6324 7.21275 11.4553 7.21275 11.2474C7.21275 11.0395 7.2859 10.8624 7.4322 10.7161C7.5785 10.5698 7.7556 10.4966 7.9635 10.4966C8.1791 10.4966 8.3562 10.5698 8.4948 10.7161C8.6411 10.8624 8.71425 11.0395 8.71425 11.2474C8.71425 11.4553 8.6411 11.6324 8.4948 11.7787C8.3562 11.925 8.1791 11.9981 7.9635 11.9981Z" fill="white"/>
</svg>
