<svg width="8" height="14" viewBox="0 0 8 14" fill="none" xmlns="http://www.w3.org/2000/svg">
<path d="M7.29867 2.35342C7.4347 2.20523 7.50271 2.13114 7.5383 2.08133C7.97924 1.46416 7.59944 0.599979 6.8466 0.507466C6.78584 0.5 6.68527 0.5 6.48411 0.5C6.43871 0.5 6.41601 0.5 6.39422 0.500951C6.14558 0.511805 5.90993 0.614982 5.73331 0.790319C5.71782 0.805688 5.70243 0.822367 5.67164 0.855725L1.25221 5.64341C0.65801 6.28712 0.360909 6.60898 0.360908 6.99997C0.360907 7.39095 0.658007 7.71281 1.25221 8.35653L5.67163 13.1443C5.70243 13.1776 5.71782 13.1943 5.73331 13.2097C5.90993 13.385 6.14558 13.4882 6.39422 13.499C6.41602 13.5 6.43872 13.5 6.48412 13.5C6.68528 13.5 6.78586 13.5 6.84662 13.4925C7.59946 13.4 7.97925 12.5358 7.53832 11.9187C7.50273 11.8689 7.43472 11.7948 7.29868 11.6466L4.27489 8.35243C3.68553 7.71038 3.39084 7.38935 3.39085 6.99997C3.39085 6.61059 3.68553 6.28956 4.2749 5.6475L7.29867 2.35342Z" fill="#1D1B20"/>
</svg>
