<svg width="16" height="16" viewBox="0 0 16 16" fill="none" xmlns="http://www.w3.org/2000/svg">
<g clip-path="url(#clip0_358_4317)">
<path d="M14.5773 6.66633C14.6359 7.00621 14.6663 7.35507 14.6663 7.71081C14.6663 11.2329 11.6811 14.0886 7.99967 14.0886C7.56681 14.0892 7.13514 14.0491 6.70994 13.9693C6.40389 13.9118 6.25086 13.8831 6.14403 13.8994C6.03719 13.9157 5.88579 13.9962 5.583 14.1573C4.72643 14.6128 3.72764 14.7737 2.76708 14.595C3.13217 14.1459 3.38151 13.6071 3.49153 13.0295C3.55819 12.6762 3.39301 12.333 3.1456 12.0817C2.02189 10.9407 1.33301 9.40307 1.33301 7.71081C1.33301 4.40397 3.96446 1.65305 7.33301 1.33301" stroke="#4B4B4B" stroke-linecap="round" stroke-linejoin="round"/>
<path d="M11.667 3.33301H11.673" stroke="#4B4B4B" stroke-linecap="round" stroke-linejoin="round"/>
<path d="M14.5302 3.06015C14.6214 3.18195 14.667 3.24285 14.667 3.33301C14.667 3.42316 14.6214 3.48406 14.5302 3.60587C14.1204 4.15317 13.0737 5.33301 11.667 5.33301C10.2603 5.33301 9.21359 4.15317 8.80379 3.60587C8.71259 3.48406 8.66699 3.42316 8.66699 3.33301C8.66699 3.24285 8.71259 3.18195 8.80379 3.06015C9.21359 2.51285 10.2603 1.33301 11.667 1.33301C13.0737 1.33301 14.1204 2.51285 14.5302 3.06015Z" stroke="#4B4B4B"/>
<path d="M7.99667 8H8.00267M5.33301 8H5.33899M10.6633 8H10.6693" stroke="#4B4B4B" stroke-linecap="round" stroke-linejoin="round"/>
</g>
<defs>
<clipPath id="clip0_358_4317">
<rect width="16" height="16" fill="white"/>
</clipPath>
</defs>
</svg>
