<svg width="16" height="16" viewBox="0 0 16 16" fill="none" xmlns="http://www.w3.org/2000/svg">
<path d="M14.212 4.76125L13.8829 4.19019C13.6341 3.7583 13.5097 3.54236 13.2979 3.45625C13.0862 3.37014 12.8467 3.43809 12.3679 3.57398L11.5544 3.80311C11.2487 3.87362 10.9279 3.83362 10.6487 3.69019L10.4241 3.56061C10.1847 3.40728 10.0006 3.18121 9.89866 2.91549L9.67606 2.25057C9.52966 1.81055 9.45646 1.59055 9.28219 1.46471C9.10799 1.33887 8.87652 1.33887 8.41359 1.33887H7.67039C7.20753 1.33887 6.97606 1.33887 6.80179 1.46471C6.62756 1.59055 6.55436 1.81055 6.40798 2.25057L6.18534 2.91549C6.08342 3.18121 5.89929 3.40728 5.6599 3.56061L5.43532 3.69019C5.15615 3.83362 4.83538 3.87362 4.52964 3.80311L3.71616 3.57398C3.23726 3.43809 2.99782 3.37014 2.7861 3.45625C2.57438 3.54236 2.44996 3.7583 2.20109 4.19019L1.87204 4.76125C1.63876 5.16609 1.52212 5.36851 1.54476 5.58399C1.5674 5.79947 1.72354 5.97311 2.03583 6.32041L2.72319 7.08886C2.89119 7.30153 3.01046 7.67219 3.01046 8.00546C3.01046 8.33886 2.89123 8.70939 2.72321 8.92213L2.03583 9.69059C1.72354 10.0379 1.5674 10.2115 1.54476 10.4271C1.52212 10.6425 1.63876 10.8449 1.87204 11.2497L2.20108 11.8208C2.44994 12.2527 2.57438 12.4687 2.7861 12.5547C2.99782 12.6409 3.23727 12.5729 3.71617 12.437L4.52962 12.2079C4.83541 12.1373 5.15624 12.1774 5.43544 12.3209L5.65999 12.4505C5.89933 12.6038 6.08342 12.8298 6.18532 13.0955L6.40798 13.7605C6.55436 14.2005 6.62756 14.4205 6.80179 14.5464C6.97606 14.6722 7.20753 14.6722 7.67039 14.6722H8.41359C8.87652 14.6722 9.10799 14.6722 9.28219 14.5464C9.45646 14.4205 9.52966 14.2005 9.67606 13.7605L9.89873 13.0955C10.0006 12.8298 10.1847 12.6038 10.4241 12.4505L10.6486 12.3209C10.9278 12.1774 11.2486 12.1373 11.5544 12.2079L12.3679 12.437C12.8467 12.5729 13.0862 12.6409 13.2979 12.5547C13.5097 12.4687 13.6341 12.2527 13.8829 11.8208L14.212 11.2497C14.4453 10.8449 14.5619 10.6425 14.5393 10.4271C14.5166 10.2115 14.3605 10.0379 14.0482 9.69059L13.3608 8.92213C13.1928 8.70939 13.0735 8.33886 13.0735 8.00546C13.0735 7.67219 13.1929 7.30153 13.3608 7.08886L14.0482 6.32041C14.3605 5.97311 14.5166 5.79947 14.5393 5.58399C14.5619 5.36851 14.4453 5.16609 14.212 4.76125Z" stroke="#4B4B4B" stroke-linecap="round"/>
<path d="M10.3463 8.00033C10.3463 9.28899 9.30167 10.3337 8.013 10.3337C6.72433 10.3337 5.67969 9.28899 5.67969 8.00033C5.67969 6.71166 6.72433 5.66699 8.013 5.66699C9.30167 5.66699 10.3463 6.71166 10.3463 8.00033Z" stroke="#4B4B4B"/>
</svg>
