<svg width="45" height="45" viewBox="0 0 45 45" fill="none" xmlns="http://www.w3.org/2000/svg">
<circle cx="22.5" cy="22.5" r="22.5" fill="#F3F3F3"/>
<path d="M28.0602 27.1365C27.2972 27.1365 26.6145 27.4378 26.0924 27.9096L18.9337 23.743C18.9839 23.512 19.0241 23.2811 19.0241 23.0402C19.0241 22.7992 18.9839 22.5683 18.9337 22.3373L26.012 18.2108C26.5542 18.7129 27.2671 19.0241 28.0602 19.0241C29.7269 19.0241 31.0723 17.6787 31.0723 16.012C31.0723 14.3454 29.7269 13 28.0602 13C26.3936 13 25.0482 14.3454 25.0482 16.012C25.0482 16.253 25.0884 16.4839 25.1386 16.7149L18.0602 20.8414C17.5181 20.3394 16.8052 20.0281 16.012 20.0281C14.3454 20.0281 13 21.3735 13 23.0402C13 24.7068 14.3454 26.0522 16.012 26.0522C16.8052 26.0522 17.5181 25.741 18.0602 25.239L25.2088 29.4157C25.1586 29.6265 25.1285 29.8474 25.1285 30.0683C25.1285 31.6847 26.4438 33 28.0602 33C29.6767 33 30.992 31.6847 30.992 30.0683C30.992 28.4518 29.6767 27.1365 28.0602 27.1365ZM28.0602 15.008C28.6124 15.008 29.0643 15.4598 29.0643 16.012C29.0643 16.5643 28.6124 17.0161 28.0602 17.0161C27.508 17.0161 27.0562 16.5643 27.0562 16.012C27.0562 15.4598 27.508 15.008 28.0602 15.008ZM16.012 24.0442C15.4598 24.0442 15.008 23.5924 15.008 23.0402C15.008 22.488 15.4598 22.0361 16.012 22.0361C16.5643 22.0361 17.0161 22.488 17.0161 23.0402C17.0161 23.5924 16.5643 24.0442 16.012 24.0442ZM28.0602 31.0924C27.508 31.0924 27.0562 30.6406 27.0562 30.0884C27.0562 29.5361 27.508 29.0843 28.0602 29.0843C28.6124 29.0843 29.0643 29.5361 29.0643 30.0884C29.0643 30.6406 28.6124 31.0924 28.0602 31.0924Z" fill="#1D1B20"/>
</svg>
