<svg width="116" height="22" viewBox="0 0 116 22" fill="none" xmlns="http://www.w3.org/2000/svg">
<circle cx="8" cy="11" r="7.37985" fill="#00A542" stroke="#00A542" stroke-width="1.24031"/>
<path d="M3.67188 12.221C3.67188 12.221 4.5981 12.221 5.83308 14.3822C5.83308 14.3822 9.26556 8.7219 12.3167 7.58984" stroke="white" stroke-width="1.11628" stroke-linecap="round" stroke-linejoin="round"/>
<path d="M29.472 17.752C28.224 17.752 27.174 17.476 26.322 16.924C25.47 16.36 24.87 15.598 24.522 14.638L26.646 13.396C27.138 14.68 28.104 15.322 29.544 15.322C30.24 15.322 30.75 15.196 31.074 14.944C31.398 14.692 31.56 14.374 31.56 13.99C31.56 13.546 31.362 13.204 30.966 12.964C30.57 12.712 29.862 12.442 28.842 12.154C28.278 11.986 27.798 11.818 27.402 11.65C27.018 11.482 26.628 11.26 26.232 10.984C25.848 10.696 25.554 10.336 25.35 9.904C25.146 9.472 25.044 8.968 25.044 8.392C25.044 7.252 25.446 6.346 26.25 5.674C27.066 4.99 28.044 4.648 29.184 4.648C30.204 4.648 31.098 4.9 31.866 5.404C32.646 5.896 33.252 6.586 33.684 7.474L31.596 8.68C31.092 7.6 30.288 7.06 29.184 7.06C28.668 7.06 28.26 7.18 27.96 7.42C27.672 7.648 27.528 7.948 27.528 8.32C27.528 8.716 27.69 9.04 28.014 9.292C28.35 9.532 28.986 9.796 29.922 10.084C30.306 10.204 30.594 10.3 30.786 10.372C30.99 10.432 31.26 10.534 31.596 10.678C31.944 10.81 32.208 10.936 32.388 11.056C32.58 11.176 32.796 11.338 33.036 11.542C33.276 11.746 33.456 11.956 33.576 12.172C33.708 12.388 33.816 12.652 33.9 12.964C33.996 13.264 34.044 13.594 34.044 13.954C34.044 15.118 33.618 16.042 32.766 16.726C31.926 17.41 30.828 17.752 29.472 17.752ZM41.6461 8.5H43.9681V17.5H41.6461V16.492C41.0821 17.332 40.1881 17.752 38.9641 17.752C37.9801 17.752 37.1641 17.422 36.5161 16.762C35.8801 16.102 35.5621 15.19 35.5621 14.026V8.5H37.8841V13.738C37.8841 14.338 38.0461 14.8 38.3701 15.124C38.6941 15.436 39.1261 15.592 39.6661 15.592C40.2661 15.592 40.7461 15.406 41.1061 15.034C41.4661 14.662 41.6461 14.104 41.6461 13.36V8.5ZM50.5288 17.752C49.1728 17.752 48.0388 17.296 47.1268 16.384C46.2268 15.472 45.7768 14.344 45.7768 13C45.7768 11.656 46.2268 10.528 47.1268 9.616C48.0388 8.704 49.1728 8.248 50.5288 8.248C51.4048 8.248 52.2028 8.458 52.9228 8.878C53.6428 9.298 54.1888 9.862 54.5608 10.57L52.5628 11.74C52.3828 11.368 52.1068 11.074 51.7348 10.858C51.3748 10.642 50.9668 10.534 50.5108 10.534C49.8148 10.534 49.2388 10.768 48.7828 11.236C48.3268 11.692 48.0988 12.28 48.0988 13C48.0988 13.708 48.3268 14.296 48.7828 14.764C49.2388 15.22 49.8148 15.448 50.5108 15.448C50.9788 15.448 51.3928 15.346 51.7528 15.142C52.1248 14.926 52.4008 14.632 52.5808 14.26L54.5968 15.412C54.2008 16.12 53.6428 16.69 52.9228 17.122C52.2028 17.542 51.4048 17.752 50.5288 17.752ZM60.1183 17.752C58.7623 17.752 57.6283 17.296 56.7163 16.384C55.8163 15.472 55.3663 14.344 55.3663 13C55.3663 11.656 55.8163 10.528 56.7163 9.616C57.6283 8.704 58.7623 8.248 60.1183 8.248C60.9943 8.248 61.7923 8.458 62.5123 8.878C63.2323 9.298 63.7783 9.862 64.1503 10.57L62.1523 11.74C61.9723 11.368 61.6963 11.074 61.3243 10.858C60.9643 10.642 60.5563 10.534 60.1003 10.534C59.4043 10.534 58.8283 10.768 58.3723 11.236C57.9163 11.692 57.6883 12.28 57.6883 13C57.6883 13.708 57.9163 14.296 58.3723 14.764C58.8283 15.22 59.4043 15.448 60.1003 15.448C60.5683 15.448 60.9823 15.346 61.3423 15.142C61.7143 14.926 61.9903 14.632 62.1703 14.26L64.1863 15.412C63.7903 16.12 63.2323 16.69 62.5123 17.122C61.7923 17.542 60.9943 17.752 60.1183 17.752ZM67.3857 13.954C67.6977 15.082 68.5437 15.646 69.9237 15.646C70.8117 15.646 71.4837 15.346 71.9397 14.746L73.8117 15.826C72.9237 17.11 71.6157 17.752 69.8877 17.752C68.3997 17.752 67.2057 17.302 66.3057 16.402C65.4057 15.502 64.9557 14.368 64.9557 13C64.9557 11.644 65.3997 10.516 66.2877 9.616C67.1757 8.704 68.3157 8.248 69.7077 8.248C71.0277 8.248 72.1137 8.704 72.9657 9.616C73.8297 10.528 74.2617 11.656 74.2617 13C74.2617 13.3 74.2317 13.618 74.1717 13.954H67.3857ZM67.3497 12.154H71.9397C71.8077 11.542 71.5317 11.086 71.1117 10.786C70.7037 10.486 70.2357 10.336 69.7077 10.336C69.0837 10.336 68.5677 10.498 68.1597 10.822C67.7517 11.134 67.4817 11.578 67.3497 12.154ZM77.8231 11.056C77.8231 11.296 77.9791 11.494 78.2911 11.65C78.6151 11.794 79.0051 11.926 79.4611 12.046C79.9171 12.154 80.3731 12.298 80.8291 12.478C81.2851 12.646 81.6691 12.934 81.9811 13.342C82.3051 13.75 82.4671 14.26 82.4671 14.872C82.4671 15.796 82.1191 16.51 81.4231 17.014C80.7391 17.506 79.8811 17.752 78.8491 17.752C77.0011 17.752 75.7411 17.038 75.0691 15.61L77.0851 14.476C77.3491 15.256 77.9371 15.646 78.8491 15.646C79.6771 15.646 80.0911 15.388 80.0911 14.872C80.0911 14.632 79.9291 14.44 79.6051 14.296C79.2931 14.14 78.9091 14.002 78.4531 13.882C77.9971 13.762 77.5411 13.612 77.0851 13.432C76.6291 13.252 76.2391 12.97 75.9151 12.586C75.6031 12.19 75.4471 11.698 75.4471 11.11C75.4471 10.222 75.7711 9.526 76.4191 9.022C77.0791 8.506 77.8951 8.248 78.8671 8.248C79.5991 8.248 80.2651 8.416 80.8651 8.752C81.4651 9.076 81.9391 9.544 82.2871 10.156L80.3071 11.236C80.0191 10.624 79.5391 10.318 78.8671 10.318C78.5671 10.318 78.3151 10.384 78.1111 10.516C77.9191 10.648 77.8231 10.828 77.8231 11.056ZM85.7778 11.056C85.7778 11.296 85.9338 11.494 86.2458 11.65C86.5698 11.794 86.9598 11.926 87.4158 12.046C87.8718 12.154 88.3278 12.298 88.7838 12.478C89.2398 12.646 89.6238 12.934 89.9358 13.342C90.2598 13.75 90.4218 14.26 90.4218 14.872C90.4218 15.796 90.0738 16.51 89.3778 17.014C88.6938 17.506 87.8358 17.752 86.8038 17.752C84.9558 17.752 83.6958 17.038 83.0238 15.61L85.0398 14.476C85.3038 15.256 85.8918 15.646 86.8038 15.646C87.6318 15.646 88.0458 15.388 88.0458 14.872C88.0458 14.632 87.8838 14.44 87.5598 14.296C87.2478 14.14 86.8638 14.002 86.4078 13.882C85.9518 13.762 85.4958 13.612 85.0398 13.432C84.5838 13.252 84.1938 12.97 83.8698 12.586C83.5578 12.19 83.4018 11.698 83.4018 11.11C83.4018 10.222 83.7258 9.526 84.3738 9.022C85.0338 8.506 85.8498 8.248 86.8218 8.248C87.5538 8.248 88.2198 8.416 88.8198 8.752C89.4198 9.076 89.8938 9.544 90.2418 10.156L88.2618 11.236C87.9738 10.624 87.4938 10.318 86.8218 10.318C86.5218 10.318 86.2698 10.384 86.0658 10.516C85.8738 10.648 85.7778 10.828 85.7778 11.056ZM96.8017 6.88C95.5297 6.784 94.8937 7.294 94.8937 8.41V8.5H96.8017V10.732H94.8937V17.5H92.5717V10.732H91.2757V8.5H92.5717V8.41C92.5717 7.138 92.9257 6.172 93.6337 5.512C94.3417 4.852 95.3977 4.564 96.8017 4.648V6.88ZM103.956 8.5H106.278V17.5H103.956V16.492C103.392 17.332 102.498 17.752 101.274 17.752C100.29 17.752 99.4739 17.422 98.8259 16.762C98.1899 16.102 97.8719 15.19 97.8719 14.026V8.5H100.194V13.738C100.194 14.338 100.356 14.8 100.68 15.124C101.004 15.436 101.436 15.592 101.976 15.592C102.576 15.592 103.056 15.406 103.416 15.034C103.776 14.662 103.956 14.104 103.956 13.36V8.5ZM108.555 17.5V4.36H110.877V17.5H108.555Z" fill="#00A542"/>
</svg>
