<svg width="177" height="177" viewBox="0 0 177 177" fill="none" xmlns="http://www.w3.org/2000/svg">
<path d="M138.973 139.042H139.042H138.973ZM138.973 139.042C134.433 143.544 126.204 142.423 120.433 142.423C113.35 142.423 109.939 143.808 104.884 148.864C100.58 153.169 94.8089 160.917 88.0006 160.917C81.1924 160.917 75.4218 153.169 71.1173 148.864C66.0621 143.808 62.6511 142.423 55.5678 142.423C49.7973 142.423 41.5686 143.544 37.0282 139.042C32.4513 134.503 33.5777 126.241 33.5777 120.433C33.5777 113.094 31.9727 109.719 26.7461 104.492C18.9715 96.7181 15.0841 92.8302 15.084 88.0002C15.0841 83.1694 18.9713 79.2822 26.7459 71.5076C31.4115 66.8421 33.5777 62.2189 33.5777 55.5673C33.5777 49.7966 32.4563 41.5678 36.959 37.0273C41.4975 32.4506 49.7602 33.5771 55.5679 33.5771C62.2193 33.5771 66.8426 31.411 71.508 26.7456C79.2827 18.9708 83.1699 15.0835 88.0006 15.0835C92.8314 15.0835 96.7186 18.9708 104.493 26.7456C109.157 31.41 113.78 33.5771 120.433 33.5771C126.204 33.5771 134.433 32.4557 138.974 36.9585C143.55 41.497 142.423 49.7597 142.423 55.5673C142.423 62.9065 144.029 66.281 149.255 71.5076C157.03 79.2822 160.917 83.1694 160.917 88.0002C160.917 92.8302 157.03 96.7181 149.255 104.492C144.028 109.719 142.423 113.094 142.423 120.433C142.423 126.241 143.55 134.503 138.973 139.042Z" fill="#00A542"/>
<path d="M138.973 139.042H139.042M138.973 139.042C134.433 143.544 126.204 142.423 120.433 142.423C113.35 142.423 109.939 143.808 104.884 148.864C100.58 153.169 94.8089 160.917 88.0006 160.917C81.1924 160.917 75.4218 153.169 71.1173 148.864C66.0621 143.808 62.6511 142.423 55.5678 142.423C49.7973 142.423 41.5686 143.544 37.0282 139.042C32.4513 134.503 33.5777 126.241 33.5777 120.433C33.5777 113.094 31.9727 109.719 26.7461 104.492C18.9715 96.7181 15.0841 92.8302 15.084 88.0002C15.0841 83.1694 18.9713 79.2822 26.7459 71.5076C31.4115 66.8421 33.5777 62.2189 33.5777 55.5673C33.5777 49.7966 32.4563 41.5678 36.959 37.0273C41.4975 32.4506 49.7602 33.5771 55.5679 33.5771C62.2193 33.5771 66.8426 31.411 71.508 26.7456C79.2827 18.9708 83.1699 15.0835 88.0006 15.0835C92.8314 15.0835 96.7186 18.9708 104.493 26.7456C109.157 31.41 113.78 33.5771 120.433 33.5771C126.204 33.5771 134.433 32.4557 138.974 36.9585C143.55 41.497 142.423 49.7597 142.423 55.5673C142.423 62.9065 144.029 66.281 149.255 71.5076C157.03 79.2822 160.917 83.1694 160.917 88.0002C160.917 92.8302 157.03 96.7181 149.255 104.492C144.028 109.719 142.423 113.094 142.423 120.433C142.423 126.241 143.55 134.503 138.973 139.042Z" stroke="#00A542" stroke-width="10.9375"/>
<path d="M66.125 94.5109C66.125 94.5109 74.875 99.2636 79.25 106.229C79.25 106.229 92.375 78.8856 109.875 69.771" stroke="white" stroke-width="10.9375" stroke-linecap="round" stroke-linejoin="round"/>
<path d="M139.973 140.042H140.042H139.973ZM139.973 140.042C135.433 144.544 127.204 143.423 121.433 143.423C114.35 143.423 110.939 144.808 105.884 149.864C101.58 154.169 95.8089 161.917 89.0006 161.917C82.1924 161.917 76.4218 154.169 72.1173 149.864C67.0621 144.808 63.6511 143.423 56.5678 143.423C50.7973 143.423 42.5686 144.544 38.0282 140.042C33.4513 135.503 34.5777 127.241 34.5777 121.433C34.5777 114.094 32.9727 110.719 27.7461 105.492C19.9715 97.7181 16.0841 93.8302 16.084 89.0002C16.0841 84.1694 19.9713 80.2822 27.7459 72.5076C32.4115 67.8421 34.5777 63.2189 34.5777 56.5673C34.5777 50.7966 33.4563 42.5678 37.959 38.0273C42.4975 33.4506 50.7602 34.5771 56.5679 34.5771C63.2193 34.5771 67.8426 32.411 72.508 27.7456C80.2827 19.9708 84.1699 16.0835 89.0006 16.0835C93.8314 16.0835 97.7186 19.9708 105.493 27.7456C110.157 32.41 114.78 34.5771 121.433 34.5771C127.204 34.5771 135.433 33.4557 139.974 37.9585C144.55 42.497 143.423 50.7597 143.423 56.5673C143.423 63.9065 145.029 67.281 150.255 72.5076C158.03 80.2822 161.917 84.1694 161.917 89.0002C161.917 93.8302 158.03 97.7181 150.255 105.492C145.028 110.719 143.423 114.094 143.423 121.433C143.423 127.241 144.55 135.503 139.973 140.042Z" fill="#00A542"/>
<path d="M139.973 140.042H140.042M139.973 140.042C135.433 144.544 127.204 143.423 121.433 143.423C114.35 143.423 110.939 144.808 105.884 149.864C101.58 154.169 95.8089 161.917 89.0006 161.917C82.1924 161.917 76.4218 154.169 72.1173 149.864C67.0621 144.808 63.6511 143.423 56.5678 143.423C50.7973 143.423 42.5686 144.544 38.0282 140.042C33.4513 135.503 34.5777 127.241 34.5777 121.433C34.5777 114.094 32.9727 110.719 27.7461 105.492C19.9715 97.7181 16.0841 93.8302 16.084 89.0002C16.0841 84.1694 19.9713 80.2822 27.7459 72.5076C32.4115 67.8421 34.5777 63.2189 34.5777 56.5673C34.5777 50.7966 33.4563 42.5678 37.959 38.0273C42.4975 33.4506 50.7602 34.5771 56.5679 34.5771C63.2193 34.5771 67.8426 32.411 72.508 27.7456C80.2827 19.9708 84.1699 16.0835 89.0006 16.0835C93.8314 16.0835 97.7186 19.9708 105.493 27.7456C110.157 32.41 114.78 34.5771 121.433 34.5771C127.204 34.5771 135.433 33.4557 139.974 37.9585C144.55 42.497 143.423 50.7597 143.423 56.5673C143.423 63.9065 145.029 67.281 150.255 72.5076C158.03 80.2822 161.917 84.1694 161.917 89.0002C161.917 93.8302 158.03 97.7181 150.255 105.492C145.028 110.719 143.423 114.094 143.423 121.433C143.423 127.241 144.55 135.503 139.973 140.042Z" stroke="#00A542" stroke-width="10.9375"/>
<path d="M67.125 95.5109C67.125 95.5109 75.875 100.264 80.25 107.229C80.25 107.229 93.375 79.8856 110.875 70.771" stroke="white" stroke-width="10.9375" stroke-linecap="round" stroke-linejoin="round"/>
</svg>
