<svg width="81" height="24" viewBox="0 0 81 24" fill="none" xmlns="http://www.w3.org/2000/svg">
<rect width="81" height="24" rx="12" fill="#5E5E5E"/>
<path d="M10.976 16.5L8.06 8.1H9.572L11.804 14.832L14.048 8.1H15.548L12.632 16.5H10.976ZM17.1666 14.052C17.2626 14.508 17.4826 14.86 17.8266 15.108C18.1706 15.348 18.5906 15.468 19.0866 15.468C19.7746 15.468 20.2906 15.22 20.6346 14.724L21.7026 15.348C21.1106 16.22 20.2346 16.656 19.0746 16.656C18.0986 16.656 17.3106 16.36 16.7106 15.768C16.1106 15.168 15.8106 14.412 15.8106 13.5C15.8106 12.604 16.1066 11.856 16.6986 11.256C17.2906 10.648 18.0506 10.344 18.9786 10.344C19.8586 10.344 20.5786 10.652 21.1386 11.268C21.7066 11.884 21.9906 12.632 21.9906 13.512C21.9906 13.648 21.9746 13.828 21.9426 14.052H17.1666ZM17.1546 12.996H20.6826C20.5946 12.508 20.3906 12.14 20.0706 11.892C19.7586 11.644 19.3906 11.52 18.9666 11.52C18.4866 11.52 18.0866 11.652 17.7666 11.916C17.4466 12.18 17.2426 12.54 17.1546 12.996ZM24.927 11.508C25.255 10.764 25.871 10.392 26.775 10.392V11.796C26.279 11.764 25.847 11.884 25.479 12.156C25.111 12.42 24.927 12.86 24.927 13.476V16.5H23.631V10.5H24.927V11.508ZM29.4566 9.36C29.2966 9.52 29.1046 9.6 28.8806 9.6C28.6566 9.6 28.4606 9.52 28.2926 9.36C28.1326 9.192 28.0526 8.996 28.0526 8.772C28.0526 8.548 28.1326 8.356 28.2926 8.196C28.4526 8.028 28.6486 7.944 28.8806 7.944C29.1126 7.944 29.3086 8.028 29.4686 8.196C29.6286 8.356 29.7086 8.548 29.7086 8.772C29.7086 8.996 29.6246 9.192 29.4566 9.36ZM28.2326 16.5V10.5H29.5286V16.5H28.2326ZM36.5493 10.5V16.5H35.2533V11.748H33.2613V16.5H31.9653V11.748H31.0533V10.5H31.9653V10.38C31.9653 8.756 32.8693 7.944 34.6773 7.944C35.1013 7.944 35.5453 7.996 36.0093 8.1V9.288C35.5853 9.224 35.1413 9.192 34.6773 9.192C34.1973 9.192 33.8413 9.28 33.6093 9.456C33.3773 9.632 33.2613 9.94 33.2613 10.38V10.5H36.5493ZM39.569 14.052C39.665 14.508 39.885 14.86 40.229 15.108C40.573 15.348 40.993 15.468 41.489 15.468C42.177 15.468 42.693 15.22 43.037 14.724L44.105 15.348C43.513 16.22 42.637 16.656 41.477 16.656C40.501 16.656 39.713 16.36 39.113 15.768C38.513 15.168 38.213 14.412 38.213 13.5C38.213 12.604 38.509 11.856 39.101 11.256C39.693 10.648 40.453 10.344 41.381 10.344C42.261 10.344 42.981 10.652 43.541 11.268C44.109 11.884 44.393 12.632 44.393 13.512C44.393 13.648 44.377 13.828 44.345 14.052H39.569ZM39.557 12.996H43.085C42.997 12.508 42.793 12.14 42.473 11.892C42.161 11.644 41.793 11.52 41.369 11.52C40.889 11.52 40.489 11.652 40.169 11.916C39.849 12.18 39.645 12.54 39.557 12.996ZM50.7502 8.1H52.0462V16.5H50.7502V15.636C50.2622 16.316 49.5622 16.656 48.6502 16.656C47.8262 16.656 47.1222 16.352 46.5382 15.744C45.9542 15.128 45.6622 14.38 45.6622 13.5C45.6622 12.612 45.9542 11.864 46.5382 11.256C47.1222 10.648 47.8262 10.344 48.6502 10.344C49.5622 10.344 50.2622 10.68 50.7502 11.352V8.1ZM47.4982 14.88C47.8582 15.24 48.3102 15.42 48.8542 15.42C49.3982 15.42 49.8502 15.24 50.2102 14.88C50.5702 14.512 50.7502 14.052 50.7502 13.5C50.7502 12.948 50.5702 12.492 50.2102 12.132C49.8502 11.764 49.3982 11.58 48.8542 11.58C48.3102 11.58 47.8582 11.764 47.4982 12.132C47.1382 12.492 46.9582 12.948 46.9582 13.5C46.9582 14.052 47.1382 14.512 47.4982 14.88Z" fill="white"/>
<path d="M60 10.333C60 13.0944 62.2386 15.333 65 15.333C67.7614 15.333 70 13.0944 70 10.333C70 7.57158 67.7614 5.33301 65 5.33301C62.2386 5.33301 60 7.57158 60 10.333Z" stroke="#00A542" stroke-linecap="round" stroke-linejoin="round"/>
<path d="M63 10.7778C63 10.7778 63.5 10.7778 64 11.6667C64 11.6667 65.5883 9.44445 67 9" stroke="#00A542" stroke-linecap="round" stroke-linejoin="round"/>
<path d="M68.255 14L68.7018 16.1399C68.9889 17.5149 69.1324 18.2023 68.8375 18.5282C68.5427 18.854 68.0307 18.5737 67.0066 18.0132L65.4909 17.1835C65.2489 17.0511 65.1279 16.9849 65 16.9849C64.8721 16.9849 64.7511 17.0511 64.5091 17.1835L62.9934 18.0132C61.9693 18.5737 61.4573 18.854 61.1624 18.5282C60.8676 18.2023 61.0111 17.5149 61.2982 16.1399L61.745 14" stroke="#00A542" stroke-linejoin="round"/>
</svg>
