<svg width="16" height="16" viewBox="0 0 16 16" fill="none" xmlns="http://www.w3.org/2000/svg">
<g clip-path="url(#clip0_358_4295)">
<path d="M9.9873 4.67676C9.9873 4.67676 10.3206 5.01009 10.654 5.67676C10.654 5.67676 11.7128 4.01009 12.654 3.67676" stroke="#4B4B4B" stroke-linecap="round" stroke-linejoin="round"/>
<path d="M6.66291 1.3476C4.99726 1.27708 3.71042 1.46896 3.71042 1.46896C2.89785 1.52706 1.34065 1.98261 1.34066 4.64306C1.34067 7.28093 1.32343 10.5329 1.34066 11.8293C1.34066 12.6213 1.83107 14.4689 3.52851 14.5679C5.59174 14.6883 9.30814 14.7139 11.0133 14.5679C11.4697 14.5422 12.9894 14.1839 13.1817 12.5305C13.381 10.8176 13.3413 9.62713 13.3413 9.3438" stroke="#4B4B4B" stroke-linecap="round" stroke-linejoin="round"/>
<path d="M14.6663 4.67708C14.6663 6.51804 13.1724 8.0104 11.3297 8.0104C9.48703 8.0104 7.99316 6.51804 7.99316 4.67708C7.99316 2.83614 9.48703 1.34375 11.3297 1.34375C13.1724 1.34375 14.6663 2.83614 14.6663 4.67708Z" stroke="#4B4B4B" stroke-linecap="round"/>
<path d="M4.65332 8.67676H7.32001" stroke="#4B4B4B" stroke-linecap="round"/>
<path d="M4.65332 11.3438H9.98667" stroke="#4B4B4B" stroke-linecap="round"/>
</g>
<defs>
<clipPath id="clip0_358_4295">
<rect width="16" height="16" fill="white"/>
</clipPath>
</defs>
</svg>
